<?xml version="1.0" encoding="UTF-8"?>
<!DOCTYPE svg PUBLIC "-//W3C//DTD SVG 1.1//EN" "http://www.w3.org/Graphics/SVG/1.1/DTD/svg11.dtd">
<svg xmlns="http://www.w3.org/2000/svg" version="1.1" width="1000px" height="1000px" style="shape-rendering:geometricPrecision; text-rendering:geometricPrecision; image-rendering:optimizeQuality; fill-rule:evenodd; clip-rule:evenodd" xmlns:xlink="http://www.w3.org/1999/xlink">
<g><path style="opacity:0.985" fill="#bcdb84" d="M 586.5,13.5 C 589.85,13.335 593.183,13.5017 596.5,14C 597.167,14.6667 597.833,15.3333 598.5,16C 598.38,18.7889 598.047,21.6223 597.5,24.5C 600.034,27.5778 600.034,30.5778 597.5,33.5C 597.713,41.0743 597.713,48.4076 597.5,55.5C 597.099,57.4342 596.099,58.9342 594.5,60C 595.634,61.016 595.301,61.6827 593.5,62C 593.957,62.414 594.291,62.914 594.5,63.5C 591.177,69.3496 588.177,74.8496 585.5,80C 578.699,86.5327 570.699,92.0327 561.5,96.5C 560.914,96.2907 560.414,95.9574 560,95.5C 558.51,97.558 556.51,98.8913 554,99.5C 552.475,99.8881 550.808,99.8881 549,99.5C 547.921,101.394 546.587,101.727 545,100.5C 544.395,102.481 543.395,102.815 542,101.5C 539.545,102.916 537.045,103.25 534.5,102.5C 530.079,104.325 525.912,104.991 522,104.5C 520.5,103 519,101.5 517.5,100C 517.56,93.5495 517.56,87.0495 517.5,80.5C 518.167,77.5 518.833,74.5 519.5,71.5C 519.818,70.3527 520.484,69.5194 521.5,69C 520.366,67.984 520.699,67.3173 522.5,67C 521.724,65.2302 521.89,63.3969 523,61.5C 533.308,39.0266 550.141,23.6932 573.5,15.5C 575.164,16.2231 576.831,15.8897 578.5,14.5C 579.086,14.7093 579.586,15.0426 580,15.5C 582.277,14.8828 584.444,14.2161 586.5,13.5 Z"/></g>
<g><path style="opacity:0.975" fill="#bcdc84" d="M 459.5,42.5 C 467.235,42.463 474.068,44.463 480,48.5C 480.333,48.1667 480.667,47.8333 481,47.5C 490.551,53.0017 496.884,60.6683 500,70.5C 500.684,71.7839 500.517,72.9505 499.5,74C 501.316,75.7186 502.316,77.8853 502.5,80.5C 501.202,87.5195 501.202,94.5195 502.5,101.5C 500.941,107.699 497.441,109.366 492,106.5C 483.777,105.51 475.943,100.677 468.5,92C 468.833,91.6667 469.167,91.3333 469.5,91C 467.17,89.2014 465.17,87.0348 463.5,84.5C 462.96,83.2519 462.293,82.0852 461.5,81C 461.833,80.6667 462.167,80.3333 462.5,80C 460.292,79.0644 458.958,77.3977 458.5,75C 457.761,73.2354 457.761,71.2354 458.5,69C 456.65,67.1551 456.317,65.1551 457.5,63C 457,62.5 456.5,62 456,61.5C 455.333,57.8333 455.333,54.1667 456,50.5C 456.468,47.4038 457.634,44.7372 459.5,42.5 Z"/></g>
<g><path style="opacity:0.979" fill="#ef8028" d="M 174.5,171.5 C 180.189,196.848 193.522,218.015 214.5,235C 213.542,236.147 213.875,237.147 215.5,238C 212.414,240.063 209.581,239.897 207,237.5C 204.071,238.568 201.237,238.234 198.5,236.5C 197.328,235.295 195.995,235.295 194.5,236.5C 192.831,235.11 191.164,234.777 189.5,235.5C 185.354,234.789 181.688,233.122 178.5,230.5C 177.914,230.709 177.414,231.043 177,231.5C 143.468,217.542 114.301,196.875 89.5,169.5C 87.7412,166.123 85.4078,162.623 82.5,159C 82.8333,158.667 83.1667,158.333 83.5,158C 81.1402,156.635 79.4735,154.635 78.5,152C 78.9574,151.586 79.2907,151.086 79.5,150.5C 78.0944,148.974 76.9277,147.307 76,145.5C 75.1778,142.341 74.3444,139.341 73.5,136.5C 73.54,128.153 73.54,119.82 73.5,111.5C 74.0253,110.808 74.6919,110.308 75.5,110C 74.7607,107.765 74.7607,105.765 75.5,104C 76.1087,101.49 77.442,99.4896 79.5,98C 79.5,96.6667 79.5,95.3333 79.5,94C 84.4992,86.4323 90.8325,81.2657 98.5,78.5C 99.1667,78.8333 99.8333,79.1667 100.5,79.5C 101.88,78.0244 103.547,77.0244 105.5,76.5C 110.167,76.5 114.833,76.5 119.5,76.5C 136.444,82.3666 150.611,92.0333 162,105.5C 163.373,111.349 165.206,117.349 167.5,123.5C 168.552,127.412 168.552,131.245 167.5,135C 169.751,136.989 170.084,139.322 168.5,142C 169.738,144.76 170.738,147.594 171.5,150.5C 171.167,151.167 170.833,151.833 170.5,152.5C 172.609,157.57 173.276,162.403 172.5,167C 173.308,167.308 173.975,167.808 174.5,168.5C 173.347,169.687 173.347,170.687 174.5,171.5 Z"/></g>
<g><path style="opacity:0.974" fill="#ef8028" d="M 205.5,78.5 C 208.855,79.6182 212.188,79.6182 215.5,78.5C 216.748,79.0402 217.915,79.7069 219,80.5C 219.333,80.1667 219.667,79.8333 220,79.5C 225.774,82.1767 231.608,85.6767 237.5,90C 250.001,101.129 253.668,114.795 248.5,131C 249.122,133.754 248.122,136.087 245.5,138C 245.5,139.333 245.5,140.667 245.5,142C 244.636,144.071 243.303,145.738 241.5,147C 241.957,147.414 242.291,147.914 242.5,148.5C 241.26,151.393 239.926,154.227 238.5,157C 238.833,157.333 239.167,157.667 239.5,158C 238.687,159.314 237.687,160.481 236.5,161.5C 237.61,163.496 237.276,165.329 235.5,167C 236.285,169.042 235.952,171.042 234.5,173C 234.957,173.414 235.291,173.914 235.5,174.5C 234.74,178.707 233.74,182.874 232.5,187C 233.74,191.126 234.74,195.293 235.5,199.5C 234.777,201.164 235.11,202.831 236.5,204.5C 236.291,205.086 235.957,205.586 235.5,206C 236.5,208.333 237.5,210.667 238.5,213C 236.951,214.214 235.785,215.714 235,217.5C 233.399,217.112 231.565,216.445 229.5,215.5C 229.649,214.448 229.483,213.448 229,212.5C 228.667,212.833 228.333,213.167 228,213.5C 213.647,204.556 203.48,193.056 197.5,179C 194.216,177.081 192.883,174.414 193.5,171C 192.584,170.626 191.75,170.126 191,169.5C 185.986,157.288 181.819,144.621 178.5,131.5C 177.208,124.998 177.208,118.498 178.5,112C 181.231,101.26 186.897,91.9269 195.5,84C 198.985,82.2452 202.319,80.4119 205.5,78.5 Z"/></g>
<g><path style="opacity:0.004" fill="#fe8500" d="M 174.5,170.5 C 175.833,171.167 175.833,171.167 174.5,170.5 Z"/></g>
<g><path style="opacity:0.004" fill="#ff91ff" d="M 198.5,236.5 C 198.103,237.525 197.437,237.692 196.5,237C 197.094,236.536 197.761,236.369 198.5,236.5 Z"/></g>
<g><path style="opacity:0.975" fill="#fdf4f5" d="M 481.5,245.5 C 486.167,245.833 490.833,246.167 495.5,246.5C 495.667,329.167 495.5,411.834 495,494.5C 413.903,495.665 332.737,495.832 251.5,495C 250.376,494.161 249.709,492.994 249.5,491.5C 250.244,486.013 251.244,480.513 252.5,475C 252.167,473.333 251.833,471.667 251.5,470C 251.755,468.674 252.422,467.674 253.5,467C 253.193,465.318 252.86,463.652 252.5,462C 253.042,457.853 254.042,453.853 255.5,450C 255.065,447.602 255.731,445.269 257.5,443C 256.185,441.605 256.519,440.605 258.5,440C 257.707,437.603 257.874,434.77 259,431.5C 259.645,430.354 260.478,429.354 261.5,428.5C 260.917,426.452 260.917,424.619 261.5,423C 262.167,422.667 262.833,422.333 263.5,422C 263.255,419.911 263.255,417.911 263.5,416C 276.293,381.599 295.127,350.766 320,323.5C 321.364,324.258 322.531,323.758 323.5,322C 323.167,321.667 322.833,321.333 322.5,321C 354.983,287.67 394.983,264.67 442.5,252C 455.703,250.164 468.703,247.998 481.5,245.5 Z"/></g>
<g><path style="opacity:0.99" fill="#f6f39e" d="M 514.5,245.5 C 518.611,245.522 522.611,246.189 526.5,247.5C 529.772,246.437 532.939,246.771 536,248.5C 539.223,247.552 542.223,248.219 545,250.5C 546,250.167 547,249.833 548,249.5C 616.187,263.801 670.353,300.468 710.5,359.5C 722.687,378.896 732.687,399.896 740.5,422.5C 740.167,423.167 739.833,423.833 739.5,424.5C 740.522,425.354 741.355,426.354 742,427.5C 742.679,430.55 743.512,433.55 744.5,436.5C 745.131,438.478 745.131,440.645 744.5,443C 746.136,444.434 747.136,446.267 747.5,448.5C 748.435,452.103 748.435,455.603 747.5,459C 749.797,460.58 750.131,462.58 748.5,465C 750.027,468.12 751.027,471.453 751.5,475C 751.423,477.997 751.09,480.997 750.5,484C 753.167,487.667 753.167,491.333 750.5,495C 669.263,495.832 588.097,495.665 507,494.5C 506.5,411.834 506.333,329.167 506.5,246.5C 509.385,246.806 512.052,246.473 514.5,245.5 Z"/></g>
<g><path style="opacity:1" fill="#2fab4d" d="M 464.5,265.5 C 479.438,263.783 484.438,270.116 479.5,284.5C 403.185,290.335 345.352,326.002 306,391.5C 291.911,418.115 284.078,446.448 282.5,476.5C 277.889,477.61 273.222,477.777 268.5,477C 266.039,474.173 265.039,470.84 265.5,467C 268.188,420.151 285.021,379.317 316,344.5C 339.683,317.467 367.85,296.633 400.5,282C 413.915,276.862 427.582,272.528 441.5,269C 449.393,268.392 457.06,267.225 464.5,265.5 Z"/></g>
<g><path style="opacity:1" fill="#16603b" d="M 524.5,296.5 C 546.102,295.783 566.102,300.949 584.5,312C 590.657,317.676 592.157,324.509 589,332.5C 568.846,376.151 546.679,418.484 522.5,459.5C 520.167,459.167 518.833,457.833 518.5,455.5C 519.197,451.529 519.697,447.529 520,443.5C 520.813,397.987 521.979,352.487 523.5,307C 523.406,304.625 523.072,302.291 522.5,300C 522.978,298.697 523.645,297.531 524.5,296.5 Z"/></g>
<g><path style="opacity:1" fill="#ed3b34" d="M 452.5,303.5 C 460.609,302.886 468.442,303.553 476,305.5C 476.933,360.182 476.599,414.848 475,469.5C 472.493,471.155 469.659,471.989 466.5,472C 413.154,472.392 359.821,472.726 306.5,473C 303.033,471.308 301.7,468.475 302.5,464.5C 303.619,450.359 306.785,436.693 312,423.5C 339.759,360.89 386.592,320.89 452.5,303.5 Z"/></g>
<g><path style="opacity:1" fill="#fdeeef" d="M 464.5,316.5 C 467.961,316.146 470.461,317.479 472,320.5C 472.667,324.5 472.667,328.5 472,332.5C 469.947,336.292 466.781,337.458 462.5,336C 460.526,330.687 460.026,325.187 461,319.5C 462.145,318.364 463.312,317.364 464.5,316.5 Z"/></g>
<g><path style="opacity:1" fill="#fdf1f2" d="M 410.5,328.5 C 419.02,330.523 422.52,335.856 421,344.5C 419.309,348.213 416.475,349.379 412.5,348C 407.324,344.146 405.491,338.979 407,332.5C 407.69,330.65 408.856,329.316 410.5,328.5 Z"/></g>
<g><path style="opacity:1" fill="#15603b" d="M 646.5,357.5 C 649.941,357.301 653.274,357.801 656.5,359C 668.353,366.52 677.853,376.353 685,388.5C 689.072,397.643 693.405,406.643 698,415.5C 700.652,424.976 702.152,434.642 702.5,444.5C 701.937,460.207 693.77,468.207 678,468.5C 649.92,467.968 621.587,467.968 593,468.5C 576.855,467.336 560.688,466.669 544.5,466.5C 544.67,465.178 544.337,464.011 543.5,463C 548.699,456.768 553.532,450.268 558,443.5C 581.316,419.237 604.816,395.07 628.5,371C 634.401,366.252 640.401,361.752 646.5,357.5 Z"/></g>
<g><path style="opacity:1" fill="#fdf1f1" d="M 367.5,369.5 C 378.187,368.368 383.687,373.034 384,383.5C 375.812,387.765 369.812,385.432 366,376.5C 365.167,373.829 365.667,371.496 367.5,369.5 Z"/></g>
<g><path style="opacity:1" fill="#fdeeee" d="M 450.5,368.5 C 459.778,369.567 462.778,374.4 459.5,383C 452.875,384.387 448.875,381.72 447.5,375C 447.84,372.489 448.84,370.322 450.5,368.5 Z"/></g>
<g><path style="opacity:1" fill="#fdf0f0" d="M 418.5,388.5 C 426.612,388.115 430.445,391.782 430,399.5C 425.478,402.312 421.145,401.979 417,398.5C 414.608,394.522 415.108,391.188 418.5,388.5 Z"/></g>
<g><path style="opacity:1" fill="#fdf0f1" d="M 350.5,411.5 C 357.916,410.242 363.749,412.576 368,418.5C 369.09,424.078 366.756,426.411 361,425.5C 354.12,426.265 349.62,423.431 347.5,417C 347.863,414.808 348.863,412.974 350.5,411.5 Z"/></g>
<g><path style="opacity:1" fill="#fdf0f1" d="M 400.5,424.5 C 405.121,423.993 409.454,424.826 413.5,427C 415.64,432.211 413.806,434.711 408,434.5C 399.591,434.972 397.091,431.639 400.5,424.5 Z"/></g>
<g><path style="opacity:1" fill="#fdeeee" d="M 343.5,448.5 C 348.267,448.191 352.934,448.691 357.5,450C 360.539,453.805 359.872,456.805 355.5,459C 350.348,461.122 345.348,460.789 340.5,458C 338.603,453.828 339.603,450.662 343.5,448.5 Z"/></g>
<g><path style="opacity:1" fill="#fdedec" d="M 392.5,456.5 C 395.32,456.248 397.986,456.748 400.5,458C 401.769,460.139 401.769,462.305 400.5,464.5C 395.817,466.348 391.15,466.515 386.5,465C 385.446,463.612 385.28,462.112 386,460.5C 387.792,458.372 389.958,457.039 392.5,456.5 Z"/></g>
<g><path style="opacity:0.99" fill="#fbe0e2" d="M 251.5,506.5 C 332.737,506.168 413.904,506.502 495,507.5C 495.833,590.169 495.667,672.835 494.5,755.5C 489.795,756.261 485.128,756.594 480.5,756.5C 478.971,756.471 477.804,755.804 477,754.5C 474.67,756.032 472.67,755.698 471,753.5C 469.133,753.314 467.133,753.647 465,754.5C 461.35,753.473 457.683,752.473 454,751.5C 451.433,752.32 449.099,751.653 447,749.5C 446.127,749.735 445.293,750.069 444.5,750.5C 440.331,749.118 436.498,747.785 433,746.5C 431.127,747.089 429.46,746.422 428,744.5C 427.586,744.957 427.086,745.291 426.5,745.5C 423.113,744.659 419.779,742.992 416.5,740.5C 414.108,741.208 411.941,740.542 410,738.5C 409.667,738.833 409.333,739.167 409,739.5C 401.456,735.356 393.956,731.856 386.5,729C 385.874,728.25 385.374,727.416 385,726.5C 384.667,726.833 384.333,727.167 384,727.5C 375.522,722.368 367.022,717.201 358.5,712C 357.299,711.097 356.465,709.931 356,708.5C 355.667,708.833 355.333,709.167 355,709.5C 350.813,705.544 345.98,701.878 340.5,698.5C 340.649,697.448 340.483,696.448 340,695.5C 339.667,695.833 339.333,696.167 339,696.5C 297.707,660.193 270.207,614.86 256.5,560.5C 256.709,559.914 257.043,559.414 257.5,559C 254.825,552.968 253.158,546.635 252.5,540C 252.86,538.348 253.193,536.682 253.5,535C 251.35,532.841 251.017,530.341 252.5,527.5C 251.192,521.82 250.192,516.153 249.5,510.5C 249.803,508.886 250.47,507.552 251.5,506.5 Z"/></g>
<g><path style="opacity:0.988" fill="#fce9b5" d="M 554.5,750.5 C 549.237,752.875 544.07,753.542 539,752.5C 538.612,753.428 537.945,754.095 537,754.5C 533.038,754.919 529.038,754.919 525,754.5C 524.196,755.804 523.029,756.471 521.5,756.5C 516.872,756.594 512.205,756.261 507.5,755.5C 506.333,672.835 506.167,590.169 507,507.5C 588.47,506.168 669.97,506.168 751.5,507.5C 750.474,514.346 750.474,521.18 751.5,528C 750.934,531.357 749.934,534.524 748.5,537.5C 750.03,539.798 749.696,541.631 747.5,543C 748.435,546.397 748.435,549.897 747.5,553.5C 747.136,555.733 746.136,557.566 744.5,559C 745.479,560.779 745.146,562.445 743.5,564C 743.957,564.414 744.291,564.914 744.5,565.5C 743.344,568.046 742.344,570.546 741.5,573C 726.371,627.536 694.871,673.036 647,709.5C 628.444,722.364 608.611,733.031 587.5,741.5C 586.833,741.167 586.167,740.833 585.5,740.5C 582.227,743.931 578.394,745.264 574,744.5C 572.299,746.41 570.133,747.577 567.5,748C 562.934,748.143 558.601,748.976 554.5,750.5 Z"/></g>
<g><path style="opacity:1" fill="#ef8029" d="M 545.5,528.5 C 575.609,530.833 605.442,535.833 635,543.5C 657.693,546.458 680.193,551.291 702.5,558C 705.131,559.327 707.798,560.66 710.5,562C 712.543,563.811 714.043,565.978 715,568.5C 715.597,580.92 713.597,592.92 709,604.5C 699.75,621.739 688.25,637.239 674.5,651C 669.328,654.085 664.328,657.419 659.5,661C 651.117,665.933 642.45,666.6 633.5,663C 630.325,659.492 626.825,656.325 623,653.5C 602.752,624.006 582.752,594.339 563,564.5C 557.921,553.331 551.588,542.998 544,533.5C 543.387,531.505 543.887,529.838 545.5,528.5 Z"/></g>
<g><path style="opacity:1" fill="#c12429" d="M 331.5,542.5 C 358.277,542.468 384.61,545.802 410.5,552.5C 387.943,564.931 363.943,573.765 338.5,579C 332.167,579.667 325.833,579.667 319.5,579C 310.147,575.798 306.313,569.298 308,559.5C 308.936,555.793 310.769,552.626 313.5,550C 319.266,546.607 325.266,544.107 331.5,542.5 Z"/></g>
<g><path style="opacity:1" fill="#ef802a" d="M 527.5,547.5 C 528.978,547.238 530.311,547.571 531.5,548.5C 534.667,552.833 537.833,557.167 541,561.5C 551.249,579.671 562.249,597.337 574,614.5C 581.781,627.729 588.781,641.395 595,655.5C 597.549,661.98 599.383,668.647 600.5,675.5C 600.038,680.995 598.872,685.995 597,690.5C 593.764,693.871 589.931,696.371 585.5,698C 566.445,704.613 546.945,708.113 527,708.5C 526.171,654.763 526.338,601.096 527.5,547.5 Z"/></g>
<g><path style="opacity:1" fill="#c12529" d="M 421.5,588.5 C 423.686,588.511 424.519,589.511 424,591.5C 413.719,606.115 403.052,620.449 392,634.5C 385.833,640.667 379.667,646.833 373.5,653C 368.113,657.362 362.113,660.695 355.5,663C 347.574,664.119 342.074,660.952 339,653.5C 336.763,645.862 338.096,638.862 343,632.5C 350.302,624.859 358.469,618.359 367.5,613C 385.502,604.493 403.502,596.326 421.5,588.5 Z"/></g>
<g><path style="opacity:1" fill="#be2529" d="M 457.5,602.5 C 458.117,602.611 458.617,602.944 459,603.5C 461.376,625.442 462.042,647.442 461,669.5C 460.559,678.763 457.059,686.596 450.5,693C 442.795,695.567 437.295,693.067 434,685.5C 432.529,679.569 432.196,673.569 433,667.5C 434.554,658.949 436.888,650.616 440,642.5C 445.751,629.062 451.584,615.728 457.5,602.5 Z"/></g>
<g><path style="opacity:0.004" fill="#feffb3" d="M 554.5,750.5 C 555.833,751.167 555.833,751.167 554.5,750.5 Z"/></g>
<g><path style="opacity:0.971" fill="#fce1e3" d="M 774.5,769.5 C 781.271,773.781 786.604,779.614 790.5,787C 793.48,793.134 797.314,799.301 802,805.5C 802.707,807.081 803.54,808.581 804.5,810C 804.167,810.333 803.833,810.667 803.5,811C 805.008,812.507 806.341,814.173 807.5,816C 807.888,817.525 807.888,819.192 807.5,821C 808.5,822 809.5,823 810.5,824C 810.167,824.333 809.833,824.667 809.5,825C 811.574,829.423 812.907,834.089 813.5,839C 814.796,848.189 814.796,857.356 813.5,866.5C 812.747,868.753 811.414,870.587 809.5,872C 810.345,873.558 809.679,874.558 807.5,875C 808.28,876.073 808.113,877.24 807,878.5C 802.944,883.285 798.61,886.952 794,889.5C 780.277,891.635 769.61,886.968 762,875.5C 761.006,871.367 760.172,867.2 759.5,863C 760.833,860 760.833,857 759.5,854C 759.773,851.849 760.439,849.849 761.5,848C 760.521,846.221 760.854,844.555 762.5,843C 761.701,841.251 762.368,839.918 764.5,839C 764.043,838.586 763.709,838.086 763.5,837.5C 768.995,826.57 772.662,815.237 774.5,803.5C 773.468,797.51 773.468,791.676 774.5,786C 772.208,784.803 771.875,783.137 773.5,781C 772.217,778.995 771.217,776.828 770.5,774.5C 771.16,772.185 772.493,770.519 774.5,769.5 Z"/></g>
</svg>
