<?xml version="1.0" encoding="UTF-8"?>
<!DOCTYPE svg PUBLIC "-//W3C//DTD SVG 1.1//EN" "http://www.w3.org/Graphics/SVG/1.1/DTD/svg11.dtd">
<svg xmlns="http://www.w3.org/2000/svg" version="1.1" width="1000px" height="1000px" style="shape-rendering:geometricPrecision; text-rendering:geometricPrecision; image-rendering:optimizeQuality; fill-rule:evenodd; clip-rule:evenodd" xmlns:xlink="http://www.w3.org/1999/xlink">
<g><path style="opacity:0.993" fill="#3eb54b" d="M 436.5,124.5 C 440.188,124.287 443.855,124.787 447.5,126C 455.527,135.689 463.861,145.022 472.5,154C 475.354,153.336 478.188,153.502 481,154.5C 484.918,152.226 489.085,151.893 493.5,153.5C 494.5,178.158 494.833,202.824 494.5,227.5C 490.073,227.817 485.739,227.817 481.5,227.5C 478.235,229.094 474.735,230.094 471,230.5C 468.649,230.18 466.316,229.847 464,229.5C 463.612,230.428 462.945,231.095 462,231.5C 458.927,231.771 455.76,231.771 452.5,231.5C 448.695,233.435 444.695,234.768 440.5,235.5C 438.378,235.623 436.211,235.623 434,235.5C 429.74,236.925 425.573,238.592 421.5,240.5C 420.833,240.167 420.167,239.833 419.5,239.5C 414.935,242.304 410.102,244.638 405,246.5C 404.667,246.167 404.333,245.833 404,245.5C 402.333,246.5 400.667,247.5 399,248.5C 398.667,248.167 398.333,247.833 398,247.5C 395.356,250.249 392.356,251.582 389,251.5C 386.531,254.579 383.531,255.913 380,255.5C 378.635,257.86 376.635,259.527 374,260.5C 369.57,262.74 364.903,265.407 360,268.5C 359.667,268.167 359.333,267.833 359,267.5C 358.558,269.679 357.558,270.345 356,269.5C 353.672,270.486 351.672,272.486 350,275.5C 349,275.5 348,275.5 347,275.5C 344.017,278.813 340.683,281.813 337,284.5C 336.667,284.167 336.333,283.833 336,283.5C 335.517,284.448 335.351,285.448 335.5,286.5C 319.307,298.523 304.807,312.523 292,328.5C 282.556,340.921 274.723,352.754 268.5,364C 266.996,367.344 264.996,370.344 262.5,373C 263.156,375.33 262.156,376.997 259.5,378C 259.5,379.333 259.5,380.667 259.5,382C 258.636,384.071 257.303,385.738 255.5,387C 255.911,390.534 254.578,393.534 251.5,396C 251.957,396.414 252.291,396.914 252.5,397.5C 250.992,400.817 249.325,403.983 247.5,407C 247.836,411.329 246.502,415.329 243.5,419C 244.137,422.135 243.471,425.135 241.5,428C 242.108,430.184 241.441,432.184 239.5,434C 239.957,434.414 240.291,434.914 240.5,435.5C 239.852,438.613 238.852,441.78 237.5,445C 238.042,447.927 237.375,450.76 235.5,453.5C 235.931,454.293 236.265,455.127 236.5,456C 235.824,461.097 234.824,466.097 233.5,471C 234.798,473.499 234.464,475.833 232.5,478C 233.108,479.231 233.441,480.564 233.5,482C 231.778,485.926 231.111,489.926 231.5,494C 205.494,494.833 179.494,494.667 153.5,493.5C 152.893,491.225 152.559,488.891 152.5,486.5C 153.469,481.525 154.136,476.692 154.5,472C 154,470.5 153.5,469 153,467.5C 143.013,459.512 133.679,450.845 125,441.5C 125.046,439.687 124.88,438.021 124.5,436.5C 126.034,434.698 126.368,432.865 125.5,431C 125.903,429.527 126.57,428.194 127.5,427C 126.715,425.457 126.715,423.79 127.5,422C 127.755,420.674 128.422,419.674 129.5,419C 128.521,417.221 128.854,415.555 130.5,414C 130.043,413.586 129.709,413.086 129.5,412.5C 130.719,409.319 131.719,406.152 132.5,403C 132.167,402.667 131.833,402.333 131.5,402C 133,401.167 134.167,400 135,398.5C 135.333,398.833 135.667,399.167 136,399.5C 142.506,397.126 148.673,394.793 154.5,392.5C 155.167,392.833 155.833,393.167 156.5,393.5C 160.064,390.311 164.064,388.978 168.5,389.5C 170.167,387.833 171.833,386.167 173.5,384.5C 173.167,383.833 172.833,383.167 172.5,382.5C 175.546,374.593 179.213,365.927 183.5,356.5C 184.025,355.808 184.692,355.308 185.5,355C 185.167,354.667 184.833,354.333 184.5,354C 186.481,353.395 186.815,352.395 185.5,351C 186.293,349.915 186.96,348.748 187.5,347.5C 182.145,336.194 176.645,325.527 171,315.5C 170.07,313.457 169.57,311.624 169.5,310C 171.773,307.968 173.44,305.468 174.5,302.5C 175.376,301.749 176.376,301.249 177.5,301C 177.167,300.667 176.833,300.333 176.5,300C 177.46,298.581 178.293,297.081 179,295.5C 183.338,289.004 187.838,282.671 192.5,276.5C 193,276.167 193.5,275.833 194,275.5C 200.292,277.786 206.792,278.119 213.5,276.5C 215.926,276.404 218.093,277.07 220,278.5C 223.779,277.654 227.612,277.488 231.5,278C 234.945,274.469 238.611,271.136 242.5,268C 242.167,267.667 241.833,267.333 241.5,267C 249.365,259.47 256.865,251.636 264,243.5C 264.333,244.167 264.667,244.833 265,245.5C 263.098,238.073 261.931,230.573 261.5,223C 262.097,220.289 262.43,217.622 262.5,215C 261.196,214.196 260.529,213.029 260.5,211.5C 261.139,208.525 261.639,205.525 262,202.5C 272.458,195.109 283.292,187.442 294.5,179.5C 295.192,180.025 295.692,180.692 296,181.5C 299.499,181.069 302.499,182.402 305,185.5C 305.333,185.167 305.667,184.833 306,184.5C 313.388,187.898 321.221,191.398 329.5,195C 330.126,195.75 330.626,196.584 331,197.5C 332.167,196.333 333.333,195.167 334.5,194C 335.449,193.383 336.282,193.549 337,194.5C 338.365,192.14 340.365,190.473 343,189.5C 351.844,185.354 361.51,181.021 372,176.5C 373.84,177.833 374.34,177.666 373.5,176C 380.11,174.114 385.777,171.948 390.5,169.5C 391.115,167.884 392.115,166.551 393.5,165.5C 392.978,161.064 394.311,157.064 397.5,153.5C 397.066,148.96 398.4,144.793 401.5,141C 401.065,138.602 401.731,136.269 403.5,134C 403.167,133.667 402.833,133.333 402.5,133C 403.966,132.365 405.3,131.531 406.5,130.5C 408.963,130.413 411.463,130.413 414,130.5C 416.518,128.536 419.184,127.87 422,128.5C 424.557,126.686 427.224,126.352 430,127.5C 430.605,125.519 431.605,125.185 433,126.5C 434.302,125.915 435.469,125.249 436.5,124.5 Z"/></g>
<g><path style="opacity:0.993" fill="#bcdb83" d="M 557.5,124.5 C 559.331,125.052 560.997,125.052 562.5,124.5C 564.169,125.89 565.836,126.223 567.5,125.5C 569.548,126.77 571.548,127.103 573.5,126.5C 575.169,127.89 576.836,128.223 578.5,127.5C 579.971,128.417 581.471,129.417 583,130.5C 584.117,130.335 585.284,130.002 586.5,129.5C 588.548,130.77 590.548,131.103 592.5,130.5C 594.452,132.095 596.452,132.595 598.5,132C 598.167,132.333 597.833,132.667 597.5,133C 601.358,136.273 603.025,140.273 602.5,145C 604.422,146.46 605.089,148.127 604.5,150C 606.464,152.518 607.13,155.184 606.5,158C 608.387,159.969 609.72,162.302 610.5,165C 610.5,166.667 610.5,168.333 610.5,170C 612.286,170.785 613.786,171.951 615,173.5C 615.414,173.043 615.914,172.709 616.5,172.5C 624.655,175.418 632.821,179.085 641,183.5C 641.333,183.167 641.667,182.833 642,182.5C 645.42,184.125 648.587,186.125 651.5,188.5C 663.168,181.592 675.668,175.258 689,169.5C 691.14,170.728 692.807,172.395 694,174.5C 694.333,174.167 694.667,173.833 695,173.5C 703.129,179.306 711.962,184.973 721.5,190.5C 722.584,194.257 723.251,198.09 723.5,202C 723.624,204.59 722.958,206.923 721.5,209C 721.696,214.286 722.029,219.62 722.5,225C 722.624,227.59 721.958,229.923 720.5,232C 732.814,242.304 744.647,253.47 756,265.5C 759.274,263.92 762.774,262.92 766.5,262.5C 769.344,262.747 772.177,263.08 775,263.5C 776.58,261.203 778.58,260.869 781,262.5C 786.369,259.847 791.702,259.847 797,262.5C 800.167,267.246 803.333,271.413 806.5,275C 806.5,276 806.5,277 806.5,278C 809.299,278.439 810.299,279.772 809.5,282C 813.161,285.056 816.494,289.056 819.5,294C 813.23,306.292 807.564,318.959 802.5,332C 807.654,338.578 811.988,346.245 815.5,355C 815.167,355.333 814.833,355.667 814.5,356C 817.578,358.466 818.911,361.466 818.5,365C 821.226,367.037 822.226,369.537 821.5,372.5C 822.025,373.192 822.692,373.692 823.5,374C 822.742,375.364 823.242,376.531 825,377.5C 826.095,382.015 827.429,386.015 829,389.5C 830.667,390.833 832.333,392.167 834,393.5C 835.667,393.5 837.333,393.5 839,393.5C 841.434,395.196 843.601,396.529 845.5,397.5C 846.086,397.291 846.586,396.957 847,396.5C 849.953,396.675 852.62,398.008 855,400.5C 855.333,400.167 855.667,399.833 856,399.5C 856.605,401.481 857.605,401.815 859,400.5C 861.237,401.056 863.237,402.056 865,403.5C 865.333,403.167 865.667,402.833 866,402.5C 866.419,403.672 867.085,404.672 868,405.5C 868.53,408.826 869.364,411.993 870.5,415C 869.632,416.865 869.966,418.698 871.5,420.5C 870.572,421.768 870.405,423.101 871,424.5C 871.333,423.833 871.667,423.167 872,422.5C 873.255,426.041 873.422,429.541 872.5,433C 873.308,433.308 873.975,433.808 874.5,434.5C 875.063,438.959 875.063,443.125 874.5,447C 864.975,455.196 855.475,463.363 846,471.5C 845.573,478.978 845.407,486.478 845.5,494C 819.494,494.833 793.494,494.667 767.5,493.5C 765.979,485.711 764.979,477.711 764.5,469.5C 765.262,466.324 764.929,463.158 763.5,460C 763.911,458.856 764.244,457.689 764.5,456.5C 762.152,452.226 760.819,447.893 760.5,443.5C 761.002,442.284 761.335,441.117 761.5,440C 759.311,439.323 758.978,438.156 760.5,436.5C 757.82,432.618 756.82,428.451 757.5,424C 755.033,420.192 753.033,415.692 751.5,410.5C 736.198,361.771 705.865,319.104 660.5,282.5C 614.114,248.377 562.447,230.044 505.5,227.5C 505.333,202.831 505.5,178.164 506,153.5C 509.744,152.374 513.577,152.207 517.5,153C 518,153.5 518.5,154 519,154.5C 521.466,153.212 523.966,153.212 526.5,154.5C 528.535,153.959 530.535,153.292 532.5,152.5C 540.819,143.179 549.153,133.846 557.5,124.5 Z"/></g>
<g><path style="opacity:0.004" fill="#4db24c" d="M 259.5,205.5 C 260.833,206.167 260.833,206.167 259.5,205.5 Z"/></g>
<g><path style="opacity:0.004" fill="#a9ffa9" d="M 755.5,263.5 C 756.833,264.167 756.833,264.167 755.5,263.5 Z"/></g>
<g><path style="opacity:0.004" fill="#4db24c" d="M 201.5,275.5 C 202.833,276.167 202.833,276.167 201.5,275.5 Z"/></g>
<g><path style="opacity:0.988" fill="#ea2428" d="M 311.5,693.5 C 319.847,700.647 328.347,708.313 337,716.5C 337.333,716.167 337.667,715.833 338,715.5C 355.257,729.191 372.924,739.858 391,747.5C 393.022,748.786 395.189,749.786 397.5,750.5C 398.192,751.025 398.692,751.692 399,752.5C 401.184,751.892 403.184,752.559 405,754.5C 406.749,753.701 408.082,754.368 409,756.5C 410.808,756.112 412.475,756.112 414,756.5C 416.627,757.314 418.96,758.647 421,760.5C 421.414,760.043 421.914,759.709 422.5,759.5C 426.038,760.163 429.205,761.497 432,763.5C 432.333,763.167 432.667,762.833 433,762.5C 435.608,763.299 438.274,764.299 441,765.5C 445.537,764.945 449.87,765.945 454,768.5C 457.099,767.519 460.099,767.852 463,769.5C 463.561,768.978 464.228,768.645 465,768.5C 469.127,769.239 473.294,769.739 477.5,770C 478,770.5 478.5,771 479,771.5C 480.4,770.884 481.9,770.551 483.5,770.5C 487.109,771.471 490.776,772.137 494.5,772.5C 494.5,796.833 494.5,821.167 494.5,845.5C 485.443,845.803 476.443,845.97 467.5,846C 461.713,853.466 455.379,860.299 448.5,866.5C 447.167,866.833 447.167,867.167 448.5,867.5C 447.547,869.61 445.881,870.777 443.5,871C 444.458,872.147 444.125,873.147 442.5,874C 441.667,874.167 440.833,874.333 440,874.5C 437.667,873.824 435.5,873.824 433.5,874.5C 430.065,873.749 426.732,872.749 423.5,871.5C 420.96,872.061 418.46,871.395 416,869.5C 414.221,870.479 412.555,870.146 411,868.5C 410.586,868.957 410.086,869.291 409.5,869.5C 406.121,867.063 402.621,865.73 399,865.5C 398.727,863.899 398.227,862.399 397.5,861C 397.833,860.667 398.167,860.333 398.5,860C 396.475,858.806 396.141,857.306 397.5,855.5C 395.079,852.588 393.412,849.255 392.5,845.5C 392.709,844.914 393.043,844.414 393.5,844C 392.257,842.846 391.257,841.512 390.5,840C 389.761,838.235 389.761,836.235 390.5,834C 388.431,833.676 388.098,832.842 389.5,831.5C 387.401,829.818 386.068,828.152 385.5,826.5C 383.108,827.208 380.941,826.542 379,824.5C 377.251,825.299 375.918,824.632 375,822.5C 374.586,822.957 374.086,823.291 373.5,823.5C 364.828,819.83 356.162,816.164 347.5,812.5C 342.238,814.588 337.071,816.921 332,819.5C 331.667,819.167 331.333,818.833 331,818.5C 329.997,821.156 328.33,822.156 326,821.5C 320.927,825.169 315.927,828.169 311,830.5C 308.86,829.272 307.193,827.605 306,825.5C 305.667,825.833 305.333,826.167 305,826.5C 297.014,820.52 288.181,814.854 278.5,809.5C 276.834,808.008 275.834,806.175 275.5,804C 277.807,797.531 278.14,790.864 276.5,784C 276.376,781.41 277.042,779.077 278.5,777C 277.294,773.888 277.294,770.722 278.5,767.5C 275.474,765.142 272.474,762.142 269.5,758.5C 269.167,757.167 268.833,757.167 268.5,758.5C 262.203,753.09 256.037,747.423 250,741.5C 249.517,740.552 249.351,739.552 249.5,738.5C 247.339,736.541 244.173,735.207 240,734.5C 232.397,736.737 224.564,738.071 216.5,738.5C 213.969,738.045 211.469,737.712 209,737.5C 206.957,739.967 204.79,739.967 202.5,737.5C 194.706,726.21 187.04,715.377 179.5,705C 184.148,694.581 188.482,684.581 192.5,675C 196.08,671.012 196.08,666.679 192.5,662C 192.833,661.667 193.167,661.333 193.5,661C 190.553,659.777 189.553,657.777 190.5,655C 189.584,654.626 188.75,654.126 188,653.5C 187.023,650.898 185.856,648.398 184.5,646C 184.833,645.667 185.167,645.333 185.5,645C 182.884,643.291 181.884,641.124 182.5,638.5C 181.944,636.491 180.611,634.491 178.5,632.5C 179.902,631.158 179.569,630.324 177.5,630C 177.833,629.667 178.167,629.333 178.5,629C 175.352,624.059 172.685,618.392 170.5,612C 170.833,611.667 171.167,611.333 171.5,611C 170,609.5 168.5,608 167,606.5C 165.413,607.727 164.079,607.394 163,605.5C 161.984,606.634 161.317,606.301 161,604.5C 158.816,605.108 156.816,604.441 155,602.5C 150.625,602.82 146.625,601.487 143,598.5C 141.192,598.888 139.525,598.888 138,598.5C 134.932,597.714 132.432,596.047 130.5,593.5C 130.413,591.037 130.413,588.537 130.5,586C 128.536,583.482 127.87,580.816 128.5,578C 126.585,574.273 125.918,570.439 126.5,566.5C 125.833,565.167 125.167,563.833 124.5,562.5C 124.778,559.933 124.944,557.267 125,554.5C 127.63,550.868 130.63,547.535 134,544.5C 136.982,542.562 139.982,539.895 143,536.5C 143.333,536.833 143.667,537.167 144,537.5C 147.158,533.321 150.491,529.987 154,527.5C 152.873,520.845 152.539,513.845 153,506.5C 179.101,505.173 205.267,505.173 231.5,506.5C 231.366,510.331 232.033,514.164 233.5,518C 233.441,519.436 233.108,520.769 232.5,522C 233.804,522.804 234.471,523.971 234.5,525.5C 234.376,527.951 234.042,530.451 233.5,533C 234.574,533.739 235.241,534.739 235.5,536C 235.641,539.283 235.641,542.616 235.5,546C 237.471,548.865 238.137,551.865 237.5,555C 238.602,557.863 239.602,560.696 240.5,563.5C 240.167,564.167 239.833,564.833 239.5,565.5C 241.319,568.457 242.653,571.624 243.5,575C 243.5,576.667 243.5,578.333 243.5,580C 245.763,583.371 247.43,587.038 248.5,591C 248.043,591.414 247.709,591.914 247.5,592.5C 250.141,594.773 251.141,597.439 250.5,600.5C 252.385,601.197 252.718,602.197 251.5,603.5C 252.5,604.333 253.5,605.167 254.5,606C 254.167,606.333 253.833,606.667 253.5,607C 255.441,608.816 256.108,610.816 255.5,613C 256.416,613.374 257.25,613.874 258,614.5C 266.403,633.363 277.236,651.197 290.5,668C 290.167,668.333 289.833,668.667 289.5,669C 291.679,669.442 292.345,670.442 291.5,672C 292.448,672.483 293.448,672.649 294.5,672.5C 294.281,673.675 294.614,674.675 295.5,675.5C 301.524,681.486 306.857,687.486 311.5,693.5 Z"/></g>
<g><path style="opacity:0.995" fill="#f47e1f" d="M 751.5,738.5 C 751.167,737.167 750.833,737.167 750.5,738.5C 749.167,738.833 749.167,739.167 750.5,739.5C 747.167,743.5 743.5,747.167 739.5,750.5C 739.167,749.167 738.833,749.167 738.5,750.5C 737.167,750.833 737.167,751.167 738.5,751.5C 734.269,755.904 733.602,760.904 736.5,766.5C 736.392,767.442 736.059,768.275 735.5,769C 736.804,769.804 737.471,770.971 737.5,772.5C 737.376,774.951 737.042,777.451 736.5,780C 737.804,780.804 738.471,781.971 738.5,783.5C 738.045,786.031 737.712,788.531 737.5,791C 739.211,792.133 739.711,793.633 739,795.5C 736,797.833 733,800.167 730,802.5C 729,802.5 728,802.5 727,802.5C 726.561,805.299 725.228,806.299 723,805.5C 722.276,807.959 720.943,808.959 719,808.5C 718.535,809.931 717.701,811.097 716.5,812C 712.494,813.837 708.994,816.337 706,819.5C 697.575,816.769 688.742,813.269 679.5,809C 678.965,806.891 677.965,806.391 676.5,807.5C 671.65,803.051 666.483,803.051 661,807.5C 660.667,807.167 660.333,806.833 660,806.5C 659.626,807.416 659.126,808.25 658.5,809C 655.127,810.016 652.46,811.349 650.5,813C 648.481,813.45 646.648,814.283 645,815.5C 643.387,814.378 642.22,814.878 641.5,817C 639.385,817.557 637.385,818.391 635.5,819.5C 634.914,819.291 634.414,818.957 634,818.5C 633.558,820.679 632.558,821.345 631,820.5C 629.333,821.5 627.667,822.5 626,823.5C 625.667,823.167 625.333,822.833 625,822.5C 621.648,824.797 618.315,826.463 615,827.5C 614.586,827.043 614.086,826.709 613.5,826.5C 612.449,827.885 611.116,828.885 609.5,829.5C 607.053,835.832 604.386,841.999 601.5,848C 601.833,848.333 602.167,848.667 602.5,849C 600.222,854.752 598.222,860.252 596.5,865.5C 595.485,866.681 594.319,867.681 593,868.5C 590.184,867.87 587.518,868.536 585,870.5C 583.135,869.632 581.302,869.966 579.5,871.5C 578.232,870.572 576.899,870.405 575.5,871C 576.167,871.333 576.833,871.667 577.5,872C 573.959,873.255 570.459,873.422 567,872.5C 566.323,874.689 565.156,875.022 563.5,873.5C 560.285,874.973 556.951,875.473 553.5,875C 545.232,866.355 536.899,857.021 528.5,847C 521.196,846.154 513.863,845.654 506.5,845.5C 505.5,821.176 505.167,796.842 505.5,772.5C 515.342,772.31 525.009,770.977 534.5,768.5C 536.354,769.073 538.187,769.407 540,769.5C 541.054,767.246 542.554,766.913 544.5,768.5C 547.24,766.625 550.073,765.958 553,766.5C 556.493,764.4 560.16,763.733 564,764.5C 566.6,762.688 569.433,761.355 572.5,760.5C 574.263,760.306 576.097,760.306 578,760.5C 579.46,758.578 581.127,757.911 583,758.5C 661.925,729.383 716.758,676.717 747.5,600.5C 748.034,598.386 749.034,596.552 750.5,595C 749.701,593.251 750.368,591.918 752.5,591C 752.112,589.192 752.112,587.525 752.5,586C 753.024,583.07 754.358,580.57 756.5,578.5C 755.141,576.694 755.475,575.194 757.5,574C 757.255,571.911 757.255,569.911 757.5,568C 758.184,566.307 759.184,564.807 760.5,563.5C 759.978,560.686 759.978,558.02 760.5,555.5C 761.805,550.795 763.138,546.461 764.5,542.5C 762.97,540.202 763.304,538.369 765.5,537C 765.214,534.641 764.88,532.308 764.5,530C 765.005,521.779 766.005,513.779 767.5,506C 793.506,505.167 819.506,505.333 845.5,506.5C 845.597,514.826 845.763,523.159 846,531.5C 855.351,540.558 864.684,548.891 874,556.5C 874.252,559.667 874.418,562.667 874.5,565.5C 873.975,566.192 873.308,566.692 872.5,567C 873.739,570.313 873.072,573.313 870.5,576C 870.735,576.873 871.069,577.707 871.5,578.5C 870.281,581.681 869.281,584.848 868.5,588C 869.32,590.567 868.653,592.901 866.5,595C 867.734,597.338 867.068,599.171 864.5,600.5C 861.771,600.906 858.937,601.906 856,603.5C 855.667,603.167 855.333,602.833 855,602.5C 851.425,604.641 847.591,606.307 843.5,607.5C 842.094,606.332 840.928,606.665 840,608.5C 839.667,608.167 839.333,607.833 839,607.5C 838.009,608.939 836.676,609.939 835,610.5C 833.211,610.623 831.378,610.623 829.5,610.5C 828.646,611.522 827.646,612.355 826.5,613C 826.888,614.808 826.888,616.475 826.5,618C 824.435,623.053 822.268,628.553 820,634.5C 818.242,635.469 817.742,636.636 818.5,638C 816.501,643.161 813.835,647.994 810.5,652.5C 813.066,653.806 814.066,655.639 813.5,658C 817.633,663.658 820.966,669.325 823.5,675C 823.167,675.333 822.833,675.667 822.5,676C 825.124,676.576 825.791,677.91 824.5,680C 827.218,682.091 829.218,684.758 830.5,688C 822.791,699.919 814.958,711.752 807,723.5C 803.074,722.527 799.074,722.527 795,723.5C 792.41,723.624 790.077,722.958 788,721.5C 781.058,722.128 774.058,722.128 767,721.5C 761.853,727.292 756.687,732.958 751.5,738.5 Z"/></g>
<g><path style="opacity:0.004" fill="#fe5600" d="M 871.5,575.5 C 872.833,576.167 872.833,576.167 871.5,575.5 Z"/></g>
<g><path style="opacity:0.004" fill="#fe5b00" d="M 867.5,594.5 C 868.833,595.167 868.833,595.167 867.5,594.5 Z"/></g>
<g><path style="opacity:0.004" fill="#fe0000" d="M 311.5,692.5 C 312.833,693.167 312.833,693.167 311.5,692.5 Z"/></g>
<g><path style="opacity:0.004" fill="#fe201f" d="M 238.5,735.5 C 239.833,736.167 239.833,736.167 238.5,735.5 Z"/></g>
<g><path style="opacity:0.004" fill="#fe0000" d="M 750.5,738.5 C 750.833,738.5 751.167,738.5 751.5,738.5C 751.315,739.17 750.981,739.17 750.5,738.5 Z"/></g>
<g><path style="opacity:0.004" fill="#fe0000" d="M 738.5,750.5 C 738.833,750.5 739.167,750.5 739.5,750.5C 739.315,751.17 738.981,751.17 738.5,750.5 Z"/></g>
<g><path style="opacity:0.004" fill="#fe0000" d="M 268.5,758.5 C 268.833,758.5 269.167,758.5 269.5,758.5C 269.315,759.17 268.981,759.17 268.5,758.5 Z"/></g>
<g><path style="opacity:0.004" fill="#fe7100" d="M 735.5,760.5 C 736.833,761.167 736.833,761.167 735.5,760.5 Z"/></g>
<g><path style="opacity:0.004" fill="#fe0f0e" d="M 275.5,795.5 C 276.833,796.167 276.833,796.167 275.5,795.5 Z"/></g>
<g><path style="opacity:0.004" fill="#fe0000" d="M 448.5,866.5 C 449.833,867.167 449.833,867.167 448.5,866.5 Z"/></g>
<g><path style="opacity:0.004" fill="#fe0000" d="M 403.5,867.5 C 404.833,868.167 404.833,868.167 403.5,867.5 Z"/></g>
<g><path style="opacity:0.004" fill="#fe0000" d="M 423.5,871.5 C 422.833,872.167 422.833,872.167 423.5,871.5 Z"/></g>
</svg>
